<svg width="142" height="38" viewBox="0 0 142 38" fill="none" xmlns="http://www.w3.org/2000/svg">
<path d="M10.992 37C10.32 37 9.984 36.776 9.984 36.328V36.184C9.984 35.896 10.288 35.48 10.896 34.936C11.536 34.36 11.856 33.72 11.856 33.016V5.512H6.624C5.856 5.512 5.184 5.96 4.608 6.856C4.064 7.752 3.584 8.648 3.168 9.544C2.752 10.44 2.32 10.888 1.872 10.888H1.296C0.656 10.888 0.384 10.52 0.48 9.784L1.344 4.12C1.44 3.32 1.888 2.92 2.688 2.92H26.784C27.584 2.92 28.048 3.32 28.176 4.12L29.232 9.832C29.296 10.152 29.248 10.408 29.088 10.6C28.928 10.792 28.704 10.888 28.416 10.888H27.84C27.488 10.888 27.12 10.616 26.736 10.072C26.352 9.496 26.016 8.872 25.728 8.2C25.44 7.528 25.04 6.92 24.528 6.376C24.016 5.8 23.456 5.512 22.848 5.512H17.616V33.016C17.616 33.72 17.936 34.36 18.576 34.936C19.216 35.48 19.536 35.896 19.536 36.184V36.328C19.536 36.776 19.184 37 18.48 37H10.992ZM47.7731 32.68C47.8371 33.384 48.0131 33.944 48.3011 34.36C48.6211 34.744 48.9251 34.984 49.2131 35.08C49.5331 35.176 49.8051 35.304 50.0291 35.464C50.2851 35.624 50.4131 35.832 50.4131 36.088C50.4131 36.888 49.1171 37.288 46.5251 37.288C45.2451 37.288 44.3011 37.096 43.6931 36.712C43.1171 36.296 42.7811 35.528 42.6851 34.408C41.4051 36.456 39.1811 37.48 36.0131 37.48C33.3251 37.48 31.1491 36.856 29.4851 35.608C27.8531 34.328 27.0371 32.536 27.0371 30.232C27.0051 27.96 27.8211 26.2 29.4851 24.952C31.1491 23.672 33.2451 23.032 35.7731 23.032C38.0771 23.032 39.9331 23.576 41.3411 24.664L41.2451 23.704C40.9571 20.76 40.4451 18.616 39.7091 17.272C38.9731 15.928 37.8051 15.256 36.2051 15.256C35.2131 15.256 34.3811 15.56 33.7091 16.168C33.0691 16.776 32.6211 17.448 32.3651 18.184C32.1411 18.888 31.8051 19.544 31.3571 20.152C30.9091 20.76 30.3491 21.064 29.6771 21.064C28.9731 21.064 28.3971 20.872 27.9491 20.488C27.5331 20.072 27.3251 19.528 27.3251 18.856C27.3251 17.32 28.1571 16.04 29.8211 15.016C31.5171 13.992 33.6451 13.48 36.2051 13.48C39.2131 13.48 41.6451 14.376 43.5011 16.168C45.3571 17.928 46.4611 20.36 46.8131 23.464L47.7731 32.68ZM37.5971 35.656C38.9091 35.656 39.9651 35.176 40.7651 34.216C41.5971 33.256 41.9811 32.12 41.9171 30.808L41.7731 29.32C41.6771 27.944 41.2131 26.856 40.3811 26.056C39.5491 25.256 38.4931 24.856 37.2131 24.856C35.8691 24.856 34.7811 25.288 33.9491 26.152C33.1171 26.984 32.7011 28.12 32.7011 29.56C32.7011 31.256 33.1491 32.696 34.0451 33.88C34.9731 35.064 36.1571 35.656 37.5971 35.656ZM53.0284 37C52.3564 37 52.0204 36.76 52.0204 36.28V36.136C52.0204 35.816 52.3084 35.384 52.8844 34.84C53.4924 34.296 53.7964 33.688 53.7964 33.016V7.72C53.7964 6.952 53.4924 6.264 52.8844 5.656C52.3084 5.048 52.0204 4.648 52.0204 4.456V4.312C52.0204 4.024 52.2924 3.736 52.8364 3.448L57.6844 1.048C58.2284 0.823998 58.6444 0.807998 58.9324 0.999997C59.2524 1.16 59.4124 1.432 59.4124 1.816V33.016C59.4124 33.688 59.7324 34.312 60.3724 34.888C61.0444 35.432 61.3804 35.848 61.3804 36.136V36.28C61.3804 36.76 61.0284 37 60.3244 37H53.0284ZM83.8365 29.944C84.0925 29.592 84.4125 29.464 84.7965 29.56C85.2125 29.656 85.4045 29.944 85.3725 30.424C85.1165 32.12 84.1245 33.72 82.3965 35.224C80.6685 36.728 78.4125 37.48 75.6285 37.48C72.3645 37.48 69.6445 36.36 67.4685 34.12C65.3245 31.88 64.2525 28.936 64.2525 25.288C64.2525 21.896 65.3565 19.08 67.5645 16.84C69.8045 14.6 72.5245 13.48 75.7245 13.48C78.6045 13.48 80.8125 14.2 82.3485 15.64C83.9165 17.048 84.7005 18.68 84.7005 20.536C84.7005 22.2 83.8845 23.32 82.2525 23.896L70.6365 28.168C71.2445 29.832 72.1565 31.128 73.3725 32.056C74.5885 32.984 76.0285 33.448 77.6925 33.448C79.1325 33.448 80.3805 33.128 81.4365 32.488C82.5245 31.816 83.3245 30.968 83.8365 29.944ZM74.7645 15.304C73.2605 15.304 72.0605 16.024 71.1645 17.464C70.2685 18.904 69.8205 20.792 69.8205 23.128C69.8205 24.216 69.9165 25.24 70.1085 26.2L78.0765 22.744C78.9085 22.36 79.3245 21.688 79.3245 20.728C79.3245 19.576 78.8765 18.392 77.9805 17.176C77.1165 15.928 76.0445 15.304 74.7645 15.304ZM112.02 32.968C112.052 33.672 112.34 34.312 112.884 34.888C113.46 35.432 113.748 35.848 113.748 36.136V36.328C113.748 36.808 113.396 37.048 112.692 37.048H105.684C104.98 37.048 104.628 36.808 104.628 36.328V36.136C104.628 35.848 104.916 35.432 105.492 34.888C106.1 34.312 106.388 33.672 106.356 32.968L105.876 23.704C105.652 18.424 103.972 15.784 100.836 15.784C99.3324 15.784 98.1164 16.344 97.1884 17.464C96.2604 18.552 95.7964 19.976 95.7964 21.736V33.016C95.7964 33.72 96.1164 34.344 96.7564 34.888C97.4284 35.432 97.7644 35.848 97.7644 36.136V36.328C97.7644 36.808 97.4124 37.048 96.7084 37.048H89.2684C88.5964 37.048 88.2604 36.808 88.2604 36.328V36.136C88.2604 35.848 88.5804 35.432 89.2204 34.888C89.8604 34.344 90.1804 33.72 90.1804 33.016V20.152C90.1804 19.544 89.9884 19.048 89.6044 18.664C89.2524 18.28 88.9004 17.976 88.5484 17.752C88.1964 17.496 88.0204 17.224 88.0204 16.936V16.792C88.0204 16.472 88.3084 16.184 88.8844 15.928L93.5404 13.672C94.0524 13.448 94.4204 13.432 94.6444 13.624C94.9004 13.784 95.0284 14.088 95.0284 14.536V17.656C95.7004 16.344 96.6764 15.32 97.9564 14.584C99.2364 13.848 100.692 13.48 102.324 13.48C104.788 13.48 106.868 14.328 108.564 16.024C110.26 17.72 111.22 20.344 111.444 23.896L112.02 32.968ZM125.078 37.48C122.998 37.48 121.35 36.824 120.134 35.512C118.95 34.168 118.358 32.232 118.358 29.704V16.312H115.622C115.078 16.312 114.806 16.04 114.806 15.496V14.824C114.806 14.248 115.078 13.96 115.622 13.96H117.11C118.326 13.96 119.302 13.544 120.038 12.712C120.806 11.88 121.286 10.744 121.478 9.304C121.574 8.6 121.894 8.248 122.438 8.248H123.158C123.766 8.248 124.07 8.6 124.07 9.304L124.118 13.96H130.166C130.422 13.96 130.63 14.04 130.79 14.2C130.95 14.36 131.03 14.568 131.03 14.824V15.496C131.03 16.04 130.742 16.312 130.166 16.312H124.118V29.752C124.118 30.872 124.374 31.752 124.886 32.392C125.398 33 126.054 33.304 126.854 33.304C128.774 33.304 129.91 32.472 130.262 30.808C130.39 30.552 130.582 30.392 130.838 30.328C131.094 30.264 131.318 30.296 131.51 30.424C131.734 30.552 131.846 30.76 131.846 31.048C131.846 32.776 131.222 34.28 129.974 35.56C128.758 36.84 127.126 37.48 125.078 37.48Z" fill="white"/>
<path d="M138.041 37.48C136.953 37.48 136.057 37.192 135.353 36.616C134.649 36.008 134.297 35.16 134.297 34.072C134.297 32.952 134.649 32.104 135.353 31.528C136.057 30.92 136.953 30.616 138.041 30.616C139.097 30.616 139.977 30.92 140.681 31.528C141.385 32.104 141.737 32.952 141.737 34.072C141.737 35.16 141.385 36.008 140.681 36.616C139.977 37.192 139.097 37.48 138.041 37.48Z" fill="#FFCA31"/>
</svg>
